<svg xmlns="http://www.w3.org/2000/svg" viewBox="0 0 512 512">
<style>
.eyeM { animation: eye 4s linear infinite alternate; }
@keyframes eye{
0%, 40% { transform: translateX(0);}
50%, 70% { transform: translateX(300px);}
70%, 100% { transform: translateX(300px);}
}
@media (prefers-reduced-motion: reduce) {
.eyeM { animation: none; }
}
</style>
<path fill="#69b3b2" d="M0 0h512v512H0z"/><path fill="#559b97" d="M20.72 113.77c-2.25 9.87 7.61 20.12 26.63 13.35 17.85-6.35 14.34-21.66 8-25.05-11.9-6.29-31.53-1.83-34.63 11.7zM440.72 410.81c-5.85 10-8.24 28.48-4.8 38.31 3.39 9.65 15.74 18.85 15.74 18.85 28.12 11.28 41.58-18 45.7-28.7 12.81-33.33-23.45-44.89-23.45-44.89-19.49 1.53-26.46 7.1-33.19 16.43zM375.63 482.61c1.14 6.7 7.95 11.57 14.06 10.06s10.3-9.12 8.64-15.69-8.83-10.79-14.79-8.71c-5.23 1.82-9.57 8.26-7.91 14.34M398.7 48.16a9.13 9.13 0 008.91 8.48c4.42.11 9.9-2.28 11.54-6.73S415.91 36.59 407 38.12c-2.85.48-8.48 4.12-8.3 10.04zM83.18 459.25a9.14 9.14 0 008.91 8.49c4.42.11 9.9-2.29 11.55-6.74s-3.25-13.32-12.21-11.79c-2.8.48-8.43 4.12-8.25 10.04zM19.28 0C4 31.65 33.57 47.85 33.57 47.85c23.32 5.9 46.95-2.07 55.57-9.46C104 25.65 107 11.56 105.9 0zM512 54.16c-15.07-.4-25.14 10.61-25.14 10.61-9.21 13.57-11.81 33.62-7 49.12 6.24 20 20.82 27 32.11 29.39zM38.33 353.06C31.4 339.51 14.55 327 0 327.35v102.49c7.53 3.23 17 4.11 28.94 1 0 .02 37.61-22.59 9.39-77.78z"/><path fill="#f8f3dc" d="M67.73 190.78C51.3 249.27 64.19 337.15 93 382.31s74.56 67.15 128 76c69.73 11.53 146.33 4 194.05-52.38 49.81-58.89 54.13-132.28 31.46-208.35-24-80.5-61.31-128.67-152.75-144.69C225.89 41 95.47 60.42 67.73 190.78z"/><path fill="#141827" d="M64.83 190c-6.23 22.32-7.92 45.88-7.19 69a312.33 312.33 0 0010.71 72.18c5.73 20.95 13.86 41.53 26.51 59.32a158.4 158.4 0 0051.88 46.35c20.84 11.65 43.91 18.94 67.31 23.3a319.88 319.88 0 0072.35 5.55c23.61-1 47.29-5.13 69.3-13.91a156.18 156.18 0 0058.39-40.17 188 188 0 0038.74-66.75c7.93-24.1 10.74-49.72 9.57-75-1.22-26.65-6.69-52.93-14.6-78.36-6.06-19.49-13.45-38.73-23.49-56.55-8.94-15.86-20.13-30.55-33.77-42.66-14.47-12.85-31.3-22.55-49.28-29.59a235.08 235.08 0 00-57.59-14.31 228.92 228.92 0 00-42.67-.93 239.88 239.88 0 00-47.82 8.07 201.71 201.71 0 00-47.22 19.62 164 164 0 00-71.92 84A198.58 198.58 0 0064.83 190c-.8 3.77 5 5.37 5.79 1.59C75 171.3 82.23 151.7 93.17 134a157 157 0 0135.57-40 174.77 174.77 0 0143.46-25A219.63 219.63 0 01219 56a237.33 237.33 0 0144.32-3 218.7 218.7 0 0145.2 6c19.68 4.57 38.92 11.41 56.29 21.85a146.84 146.84 0 0139.67 35.08c11.36 14.42 20.08 30.9 27 47.83a355.14 355.14 0 0120.08 67c4.87 25.06 6.57 50.87 3.5 76.27a183.12 183.12 0 01-22.94 69.49c-12.3 21.35-28.73 40.55-49.26 54.33-19 12.78-40.77 20.83-63.22 25.13-23 4.4-46.61 4.89-69.87 3-23.63-1.92-47.32-6.07-69.78-13.81-21.28-7.33-41.47-18.24-58.27-33.33A149.93 149.93 0 0184.25 359c-8.92-20.8-14.33-43.2-17.58-65.55a287.87 287.87 0 01-1.83-70.87 188.27 188.27 0 015.78-31.05c1.04-3.68-4.75-5.27-5.79-1.53z"/><path fill="#eae3ca" d="M98.11 384.55s32.2 56.57 121.9 71.83C270.14 464.9 353 467.9 410.46 407c33.38-35.4 63.52-103.46 34.26-205.39 0-.01 10.28 342.39-346.61 182.94z"/><ellipse class="eyeM" cx="118.06" cy="275.4" fill="#141827" rx="24.05" ry="26.13"/>
</svg>