<?xml version="1.0" encoding="utf-8"?>
<!-- Generator: Adobe Illustrator 23.0.6, SVG Export Plug-In . SVG Version: 6.00 Build 0)  -->
<svg version="1.1" id="Layer_1" xmlns="http://www.w3.org/2000/svg" xmlns:xlink="http://www.w3.org/1999/xlink" x="0px" y="0px"
	 viewBox="0 0 128.7 132.9" style="enable-background:new 0 0 128.7 132.9;" xml:space="preserve">
<style type="text/css">
	.st0{fill:#F8F3DC;}
	.st1{fill:#121625;}
	.st2{fill:#EAE4CA;}
</style>
<g>
	<g>
		<path class="st0" d="M5.2,46.3c-5,18-1.1,45,7.8,58.9s22.9,20.6,39.3,23.3c21.4,3.5,45,1.2,59.6-16.1c15.3-18.1,16.6-40.6,9.7-64
			c-7.4-24.7-18.8-39.5-46.9-44.5C53.8,0.3,13.8,6.2,5.2,46.3z"/>
		<g>
			<path class="st1" d="M2.3,45.5c-2,7.1-2.5,14.6-2.3,21.9C0.3,75,1.4,82.7,3.4,90.1c1.8,6.6,4.4,13.1,8.4,18.7
				c4.3,6.1,9.9,11.1,16.4,14.8c6.5,3.7,13.7,6,21,7.4c7.5,1.4,15.2,2.2,22.9,1.9c15.1-0.6,30.2-5.5,40.7-16.9
				c11.2-12.2,16.4-28.4,15.8-44.8c-0.3-8.4-2-16.7-4.4-24.7c-1.9-6.2-4.2-12.3-7.4-18c-2.8-5-6.3-9.8-10.6-13.6
				c-4.6-4.2-9.9-7.3-15.7-9.6c-10-4-21-5.7-31.7-5C48.2,0.8,37.6,3.6,28.4,8.9C17.7,15,9.7,24.4,5.2,35.8C4,39,3,42.2,2.3,45.5
				c-0.3,1.6,0.5,3.2,2.1,3.7c1.5,0.4,3.3-0.5,3.7-2.1c1.4-6.3,3.4-11.8,6.7-17.2c0.8-1.2,1.6-2.4,2.4-3.5c0.1-0.1,0.2-0.2,0.3-0.3
				c-0.3,0.4,0,0,0.1-0.1c0.2-0.3,0.4-0.5,0.6-0.8c0.5-0.6,0.9-1.1,1.4-1.6c1.8-2,3.8-3.8,5.9-5.5c0.1-0.1,0.2-0.2,0.3-0.3
				c0.4-0.3-0.3,0.3,0,0c0.3-0.2,0.5-0.4,0.8-0.6c0.5-0.4,1.1-0.8,1.7-1.2c1.1-0.7,2.2-1.4,3.3-2.1c1.1-0.6,2.2-1.2,3.3-1.7
				c0.6-0.3,1.1-0.5,1.7-0.8c0.3-0.1,0.6-0.2,0.8-0.4c0.4-0.2-0.4,0.2,0,0c0.2-0.1,0.4-0.2,0.6-0.2c4.6-1.8,9.4-3.1,14.2-3.9
				c0.6-0.1,1.1-0.2,1.7-0.3c0.4-0.1-0.2,0-0.2,0c0.2,0,0.3,0,0.5-0.1c0.3,0,0.6-0.1,1-0.1c1.2-0.1,2.3-0.2,3.5-0.3
				C61,6,63.2,6,65.4,6c2,0.1,4.1,0.2,6.1,0.4c0.2,0,0.5,0.1,0.7,0.1c-0.6-0.1-0.3,0,0.1,0c0.5,0.1,0.9,0.1,1.4,0.2
				c1.7,0.3,3.4,0.6,5.1,1c6.1,1.4,11.4,3.3,16.7,6.5c1.2,0.7,2.4,1.5,3.6,2.4c0.2,0.2,0.5,0.3,0.7,0.5c-0.4-0.3,0.3,0.2,0.4,0.3
				c0.5,0.4,1.1,0.9,1.6,1.4c2,1.8,3.8,3.8,5.5,5.9c0.4,0.5,0.1,0.2,0,0.1c0.1,0.1,0.2,0.2,0.3,0.3c0.2,0.3,0.4,0.5,0.6,0.8
				c0.4,0.6,0.8,1.2,1.2,1.7c0.8,1.2,1.5,2.4,2.2,3.6c0.7,1.2,1.4,2.5,2,3.8c0.3,0.6,0.6,1.3,0.9,1.9c0.1,0.3,0.3,0.7,0.4,1
				c0,0,0.2,0.5,0.1,0.2c-0.1-0.2,0.2,0.4,0.2,0.5c2.7,6.6,4.8,13.5,6.1,20.5c2.8,14.7,1.8,30.1-5.8,43.2c-3.6,6.3-8.5,12-14.5,16
				c-5.8,3.9-12.1,6.2-19,7.4c-6.7,1.3-13.9,1.4-20.9,0.8c-6.9-0.6-13.9-1.8-20.6-4.1c-6.2-2.1-12.2-5.4-17.1-9.7
				c-4.9-4.4-8.6-9.6-11.2-15.7c-2.5-5.8-4.3-13-5.2-19.7c-1-6.8-1.2-14.3-0.5-21.3c0.2-1.5,0.3-2.6,0.6-4.3
				c0.3-1.6,0.7-3.2,1.1-4.8C9.2,43.4,3.4,41.8,2.3,45.5z"/>
		</g>
	</g>
	<g>
		<path class="st2" d="M15.2,104.9c0,0,9.6,17.7,37.1,22.4c15.4,2.6,40.9,2.6,58.5-16.1c10.3-10.9,17.8-33.9,9.3-62.2
			C120.1,49,124.8,153.9,15.2,104.9z"/>
	</g>
	<ellipse class="st1" cx="63.7" cy="72.3" rx="7.4" ry="8"/>
	<g>
		<g>
			<path class="st1" d="M2.3,45.5c-2,7.1-2.5,14.6-2.3,21.9C0.3,75,1.4,82.7,3.4,90.1c1.8,6.6,4.4,13.1,8.4,18.7
				c4.3,6.1,9.9,11.1,16.4,14.8c6.5,3.7,13.7,6,21,7.4c7.5,1.4,15.2,2.2,22.9,1.9c15.1-0.6,30.2-5.5,40.7-16.9
				c11.2-12.2,16.4-28.4,15.8-44.8c-0.3-8.4-2-16.7-4.4-24.7c-1.9-6.2-4.2-12.3-7.4-18c-2.8-5-6.3-9.8-10.6-13.6
				c-4.6-4.2-9.9-7.3-15.7-9.6c-10-4-21-5.7-31.7-5C48.2,0.8,37.6,3.6,28.4,8.9C17.7,15,9.7,24.4,5.2,35.8C4,39,3,42.2,2.3,45.5
				c-0.3,1.6,0.5,3.2,2.1,3.7c1.5,0.4,3.3-0.5,3.7-2.1c1.4-6.3,3.4-11.8,6.7-17.2c0.8-1.2,1.6-2.4,2.4-3.5c0.1-0.1,0.2-0.2,0.3-0.3
				c-0.3,0.4,0,0,0.1-0.1c0.2-0.3,0.4-0.5,0.6-0.8c0.5-0.6,0.9-1.1,1.4-1.6c1.8-2,3.8-3.8,5.9-5.5c0.1-0.1,0.2-0.2,0.3-0.3
				c0.4-0.3-0.3,0.3,0,0c0.3-0.2,0.5-0.4,0.8-0.6c0.5-0.4,1.1-0.8,1.7-1.2c1.1-0.7,2.2-1.4,3.3-2.1c1.1-0.6,2.2-1.2,3.3-1.7
				c0.6-0.3,1.1-0.5,1.7-0.8c0.3-0.1,0.6-0.2,0.8-0.4c0.4-0.2-0.4,0.2,0,0c0.2-0.1,0.4-0.2,0.6-0.2c4.6-1.8,9.4-3.1,14.2-3.9
				c0.6-0.1,1.1-0.2,1.7-0.3c0.4-0.1-0.2,0-0.2,0c0.2,0,0.3,0,0.5-0.1c0.3,0,0.6-0.1,1-0.1c1.2-0.1,2.3-0.2,3.5-0.3
				C61,6,63.2,6,65.4,6c2,0.1,4.1,0.2,6.1,0.4c0.2,0,0.5,0.1,0.7,0.1c-0.6-0.1-0.3,0,0.1,0c0.5,0.1,0.9,0.1,1.4,0.2
				c1.7,0.3,3.4,0.6,5.1,1c6.1,1.4,11.4,3.3,16.7,6.5c1.2,0.7,2.4,1.5,3.6,2.4c0.2,0.2,0.5,0.3,0.7,0.5c-0.4-0.3,0.3,0.2,0.4,0.3
				c0.5,0.4,1.1,0.9,1.6,1.4c2,1.8,3.8,3.8,5.5,5.9c0.4,0.5,0.1,0.2,0,0.1c0.1,0.1,0.2,0.2,0.3,0.3c0.2,0.3,0.4,0.5,0.6,0.8
				c0.4,0.6,0.8,1.2,1.2,1.7c0.8,1.2,1.5,2.4,2.2,3.6c0.7,1.2,1.4,2.5,2,3.8c0.3,0.6,0.6,1.3,0.9,1.9c0.1,0.3,0.3,0.7,0.4,1
				c0,0,0.2,0.5,0.1,0.2c-0.1-0.2,0.2,0.4,0.2,0.5c2.7,6.6,4.8,13.5,6.1,20.5c2.8,14.7,1.8,30.1-5.8,43.2c-3.6,6.3-8.5,12-14.5,16
				c-5.8,3.9-12.1,6.2-19,7.4c-6.7,1.3-13.9,1.4-20.9,0.8c-6.9-0.6-13.9-1.8-20.6-4.1c-6.2-2.1-12.2-5.4-17.1-9.7
				c-4.9-4.4-8.6-9.6-11.2-15.7c-2.5-5.8-4.3-13-5.2-19.7c-1-6.8-1.2-14.3-0.5-21.3c0.2-1.5,0.3-2.6,0.6-4.3
				c0.3-1.6,0.7-3.2,1.1-4.8C9.2,43.4,3.4,41.8,2.3,45.5z"/>
		</g>
	</g>
</g>
</svg>
