<svg xmlns="http://www.w3.org/2000/svg" viewBox="0 0 1240 308">
	<style>
		.all-stars .st0 { 
			fill:#f8f3dc;
			opacity: .5;
			animation: starLight 5s infinite alternate, starRot 4s 1s infinite alternate;
			@media screen and (prefers-reduced-motion: reduce) { animation: none; }
		}
		.all-stars .st0:nth-child(even) {
			animation-delay: 2s;
			animation-duration: 8s;
		}
		@keyframes starLight {
			80% {opacity: 1}
		}
		@keyframes starRot {
			50% { transform: translateY(2px) }
		}
	</style>
	<g class="all-stars">
		<circle class="st0" cx="844.7" cy="164.2" r="1.6"/>
		<path class="st0" d="M743.6 217.8c0-.4-.3-.8-.8-.8-.4 0-.8.3-.8.8s.3.8.8.8c.4 0 .8-.4.8-.8z"/>
		<circle class="st0" cx="524.3" cy="182.9" r=".8"/>
		<circle class="st0" cx="737.6" cy="226.4" r=".8"/>
		<circle class="st0" cx="18.2" cy="103.6" r=".8"/>
		<path class="st0" d="M51.3 78.1c.1-.4-.2-.8-.7-.9-.4-.1-.8.2-.9.7-.1.4.2.8.7.9.4 0 .8-.3.9-.7zM38.8 91.7c0-.4-.3-.8-.8-.8-.4 0-.8.3-.8.8s.3.8.8.8.8-.3.8-.8z"/>
		<circle class="st0" cx="749" cy="227.2" r=".8"/>
		<circle class="st0" cx="31" cy="72.9" r=".8"/>
		<path class="st0" d="M1169.9 127.5c.4-.1.6-.6.5-1s-.6-.6-1-.5-.6.6-.5 1c.1.4.6.7 1 .5zM1183.8 107.8c.4-.1.6-.6.5-1s-.6-.6-1-.5-.6.6-.5 1c.2.4.6.6 1 .5zM1160.2 125c.4-.1.6-.6.5-1s-.6-.6-1-.5-.6.6-.5 1c.1.4.5.6 1 .5zM760.6 203.9c.4-.1.6-.6.5-1s-.6-.6-1-.5-.6.6-.5 1c.2.4.6.6 1 .5zM432.8 168.9c.4 0 .8-.3.8-.8 0-.4-.3-.8-.8-.8-.4 0-.8.3-.8.8s.4.8.8.8zM925.4 140.9c.4 0 .8-.3.8-.8 0-.4-.3-.8-.8-.8-.4 0-.8.3-.8.8 0 .4.4.7.8.8zM917.5 128.9c.4 0 .8-.3.8-.8s-.3-.8-.8-.8c-.4 0-.8.3-.8.8s.4.8.8.8zM906.4 153.7c.4.1.8-.2.9-.6.1-.4-.2-.8-.6-.9-.4-.1-.8.2-.9.6-.1.4.2.8.6.9zM893.1 140.9c.4 0 .8-.3.8-.8 0-.4-.3-.8-.8-.8-.4 0-.8.3-.8.8s.4.7.8.8zM915.5 148.9c.4 0 .8-.3.8-.8 0-.4-.3-.8-.8-.8-.4 0-.8.3-.8.8s.3.8.8.8zM912.2 134.4c.4 0 .8-.3.8-.8s-.3-.8-.8-.8-.8.3-.8.8c0 .4.4.8.8.8zM900.4 121.9c.4 0 .8-.3.8-.8 0-.4-.3-.8-.8-.8-.4 0-.8.3-.8.8s.3.8.8.8zM234.6 159.9c.4 0 .8-.3.8-.8 0-.4-.3-.8-.8-.8-.4 0-.8.3-.8.8s.4.8.8.8zM233.1 171.3c.4 0 .8-.3.8-.8 0-.4-.3-.8-.8-.8-.4 0-.8.3-.8.8s.4.8.8.8zM225.2 159.4c.4 0 .8-.3.8-.8 0-.4-.3-.8-.8-.8-.4 0-.8.3-.8.8 0 .4.4.8.8.8zM954 144.3c.4.1.8-.2.9-.6.1-.4-.2-.8-.6-.9-.4-.1-.8.2-.9.6s.2.8.6.9zM200.8 171.3c.4 0 .8-.3.8-.8 0-.4-.3-.8-.8-.8-.4 0-.8.3-.8.8s.4.8.8.8zM176.7 165.7c.4 0 .8-.3.8-.8 0-.4-.3-.8-.8-.8-.4 0-.8.3-.8.8 0 .4.4.8.8.8zM930.2 161.1c.4 0 .8-.3.8-.8s-.3-.8-.8-.8c-.4 0-.8.3-.8.8 0 .4.4.8.8.8zM700 149.9c.4 0 .8-.3.8-.8 0-.4-.3-.8-.8-.8s-.8.3-.8.8c0 .4.3.8.8.8zM698.4 161.4c.4 0 .8-.3.8-.8 0-.4-.3-.8-.8-.8-.4 0-.8.3-.8.8 0 .4.4.8.8.8zM690.5 149.4c.4 0 .8-.3.8-.8 0-.4-.3-.8-.8-.8-.4 0-.8.3-.8.8s.4.8.8.8zM99.3 142.4c.4 0 .8-.3.8-.8 0-.4-.3-.8-.8-.8-.4 0-.8.3-.8.8 0 .4.3.7.8.8zM80.3 155.2c.4.1.8-.2.9-.6.1-.4-.2-.8-.6-.9-.4-.1-.8.2-.9.6s.1.8.6.9zM89.3 150.4c.4 0 .8-.3.8-.8s-.3-.8-.8-.8c-.4 0-.8.3-.8.8.1.4.4.8.8.8zM77.1 131.4c.4 0 .8-.3.8-.8 0-.4-.3-.8-.8-.8-.4 0-.8.3-.8.8 0 .4.3.8.8.8zM1001.9 182.2c.4 0 .8-.3.8-.8 0-.4-.3-.8-.8-.8-.4 0-.8.3-.8.8s.4.8.8.8zM1000.3 193.6c.4 0 .8-.3.8-.8 0-.4-.3-.8-.8-.8-.4 0-.8.3-.8.8s.4.8.8.8zM992.4 181.7c.4 0 .8-.3.8-.8 0-.4-.3-.8-.8-.8-.4 0-.8.3-.8.8.1.4.4.8.8.8zM999.1 157.9c.4.1.8-.2.9-.6.1-.4-.2-.8-.6-.9-.4-.1-.8.2-.9.6-.1.4.2.8.6.9zM975.3 174.7c.4 0 .8-.3.8-.8 0-.4-.3-.8-.8-.8-.4 0-.8.3-.8.8.1.4.4.8.8.8zM1132.1 175c.4.2.8.2 1.1-.2.2-.4.2-.8-.2-1.1-.4-.2-.8-.2-1.1.2-.3.4-.2.8.2 1.1z"/>
		<circle class="st0" cx="664" cy="251.1" r=".8"/>
		<path class="st0" d="M387.6 197.3c.4.2.8.2 1.1-.2.2-.4.2-.8-.2-1.1-.4-.2-.8-.2-1.1.2-.2.3-.1.8.2 1.1zM1136.9 153c.4.2.8.2 1.1-.2.2-.4.2-.8-.2-1.1-.4-.2-.8-.2-1.1.2-.2.4-.1.9.2 1.1zM384.4 178.5c.3.3.8.3 1.1 0 .3-.3.3-.8 0-1.1s-.8-.3-1.1 0c-.3.3-.3.8 0 1.1zM391 210.7c0-.4-.3-.8-.8-.8s-.8.3-.8.8.3.8.8.8.8-.3.8-.8zM392.6 186.2c.4.2.8.2 1.1-.2.2-.4.2-.8-.2-1.1-.4-.2-.8-.2-1.1.2-.2.4-.1.9.2 1.1zM664 261.7c.4.2.8.2 1.1-.2.2-.4.2-.8-.2-1.1-.4-.2-.8-.2-1.1.2-.3.3-.2.8.2 1.1zM866.3 186.8c.4.2.8.2 1.1-.2.2-.4.2-.8-.2-1.1-.4-.2-.8-.2-1.1.2s-.1.9.2 1.1zM849.7 187.6c.3.3.8.3 1.1 0s.3-.8 0-1.1-.8-.3-1.1 0-.3.8 0 1.1zM233.8 115.3c0-.4-.3-.8-.8-.8s-.8.3-.8.8.3.8.8.8.8-.4.8-.8zM225.3 144.8c.3.3.8.3 1.1 0s.3-.8 0-1.1-.8-.3-1.1 0-.3.8 0 1.1zM232.5 131.3c.4.2.8.2 1.1-.2.2-.4.2-.8-.2-1.1-.4-.2-.8-.2-1.1.2-.2.4-.1.9.2 1.1zM677.9 200.4c.4.2.8.2 1.1-.2.2-.4.2-.8-.2-1.1-.4-.2-.8-.2-1.1.2-.3.4-.2.9.2 1.1zM747.3 170.4c0-.4-.3-.8-.8-.8-.4 0-.8.3-.8.8 0 .4.3.8.8.8s.8-.4.8-.8zM750 182.1c.4.2.8.2 1.1-.2.2-.4.2-.8-.2-1.1-.4-.2-.8-.2-1.1.2-.3.4-.2.9.2 1.1zM738.4 162.6c-.1.4.2.8.6.9.4.1.8-.2.9-.6.1-.4-.2-.8-.6-.9-.4-.1-.8.2-.9.6zM734.1 156.3c-.1.4.2.8.6.9.4.1.8-.2.9-.6.1-.4-.2-.8-.6-.9-.4-.1-.8.2-.9.6zM1120 139c-.1.4.2.8.6.9.4.1.8-.2.9-.6.1-.4-.2-.8-.6-.9s-.8.2-.9.6zM1133.3 133.7c-.1.4.2.8.6.9.4.1.8-.2.9-.6s-.2-.8-.6-.9c-.4-.1-.8.1-.9.6zM648.5 260.5c-.1.4.2.8.6.9.4.1.8-.2.9-.6s-.2-.8-.6-.9c-.4 0-.8.2-.9.6zM299 204.5c-.4-.6-1.2-.8-1.8-.5-.6.4-.8 1.2-.5 1.8.4.6 1.2.8 1.8.5.6-.4.8-1.2.5-1.8zM287.3 191.1c.2.7.9 1.1 1.6.9.7-.2 1.1-.9.9-1.6-.2-.7-.9-1.1-1.6-.9-.7.1-1.1.9-.9 1.6zM287.3 177.8c.2.7.9 1.1 1.6.9.7-.2 1.1-.9.9-1.6-.2-.7-.9-1.1-1.6-.9-.7.2-1.1.9-.9 1.6zM305.2 180.6c.2.7.9 1.1 1.6.9.7-.2 1.1-.9.9-1.6-.2-.7-.9-1.1-1.6-.9s-1.1.9-.9 1.6zM311.7 197.2c.2.7.9 1.1 1.6.9.7-.2 1.1-.9.9-1.6-.2-.7-.9-1.1-1.6-.9-.7.2-1.1.9-.9 1.6z"/>
		<circle class="st0" cx="375.4" cy="157.3" r=".8"/>
		<path class="st0" d="M367.7 186.9c.3.3.8.3 1.1 0 .3-.3.3-.8 0-1.1s-.8-.3-1.1 0-.3.8 0 1.1zM345.9 186.2c.4.2.8.2 1.1-.2.2-.4.2-.8-.2-1.1s-.8-.2-1.1.2c-.2.3-.1.8.2 1.1zM346.7 201.1c.4.2.8.2 1.1-.2.2-.4.2-.8-.2-1.1-.4-.2-.8-.2-1.1.2-.2.4-.1.8.2 1.1zM349 159.7c-.1.4.2.8.6.9.4.1.8-.2.9-.6.1-.4-.2-.8-.6-.9-.4 0-.8.2-.9.6zM621.8 246.8c-.1.4.2.8.6.9.4.1.8-.2.9-.6.1-.4-.2-.8-.6-.9-.4 0-.8.2-.9.6zM1062.5 220.3c-.1.4.2.8.6.9.4.1.8-.2.9-.6.1-.4-.2-.8-.6-.9s-.8.2-.9.6zM70.6 142.4c-.1.4.2.8.6.9.4.1.8-.2.9-.6.1-.4-.2-.8-.6-.9s-.8.2-.9.6zM1193.6 115.7c-.2.4 0 .9.4 1 .4.2.9 0 1-.4.2-.4 0-.9-.4-1-.4-.2-.9 0-1 .4zM1196.4 125.6c-.1.4.2.8.6.9.4.1.8-.2.9-.6.1-.4-.2-.8-.6-.9s-.8.1-.9.6zM1197.2 142c-.1.4.2.8.6.9.4.1.8-.2.9-.6.1-.4-.2-.8-.6-.9s-.8.1-.9.6zM328.6 168.9c-.1.4.2.8.6.9.4.1.8-.2.9-.6.1-.4-.2-.8-.6-.9s-.8.2-.9.6zM330.9 159.7c-.1.4.2.8.6.9.4.1.8-.2.9-.6.1-.4-.2-.8-.6-.9-.4 0-.8.2-.9.6zM352.9 171.1c-.2.4 0 .9.4 1 .4.2.9 0 1-.4s0-.9-.4-1c-.4-.2-.8 0-1 .4zM1181.5 137.5c-.1.4.2.8.6.9.4.1.8-.2.9-.6.1-.4-.2-.8-.6-.9s-.8.2-.9.6zM39.9 100.8c.4-.1.6-.6.5-1s-.6-.6-1-.5-.6.6-.5 1c.1.3.5.6 1 .5z"/>
		<circle class="st0" cx="328.4" cy="205.5" r=".8"/>
		<path class="st0" d="M59.3 126.1c-.1.4.2.8.6.9.4.1.8-.2.9-.6.1-.4-.2-.8-.6-.9-.4-.1-.8.2-.9.6zM328.3 186.6c-.1.4.2.8.6.9.4.1.8-.2.9-.6.1-.4-.2-.8-.6-.9-.3-.1-.8.2-.9.6zM66.4 98.8c-.1.4.2.8.6.9s.8-.2.9-.6-.2-.8-.6-.9-.8.2-.9.6zM59.6 94.3c-.1.4.2.8.6.9.4.1.8-.2.9-.6.1-.4-.2-.8-.6-.9-.4 0-.8.2-.9.6zM41.2 126.1c-.1.4.2.8.6.9.4.1.8-.2.9-.6.1-.4-.2-.8-.6-.9-.4-.1-.8.2-.9.6zM51.5 110.7c-.1.4.2.8.6.9.4.1.8-.2.9-.6.1-.4-.2-.8-.6-.9-.4 0-.8.2-.9.6zM1061.8 158c.2.4.7.4 1.1.2s.4-.7.2-1.1c-.2-.4-.7-.4-1.1-.2s-.4.8-.2 1.1zM1061.1 148c.2.4.7.4 1.1.2s.4-.7.2-1.1c-.2-.4-.7-.4-1.1-.2-.3.2-.4.7-.2 1.1zM469.1 139.7c.2.4.7.5 1 .4.4-.2.5-.7.4-1-.2-.4-.7-.5-1-.4s-.6.6-.4 1zM1061.1 190c.2.4.7.4 1.1.2s.4-.7.2-1.1c-.2-.4-.7-.4-1.1-.2-.4.3-.5.8-.2 1.1zM1051.3 153.9c.2.4.7.4 1.1.2s.4-.7.2-1.1c-.2-.4-.7-.4-1.1-.2-.3.2-.4.7-.2 1.1zM981.2 187.7c.2.4.7.4 1.1.2.4-.2.4-.7.2-1.1-.2-.4-.7-.4-1.1-.2-.4.3-.5.8-.2 1.1zM1062.3 122.5c.2.4.7.4 1.1.2s.4-.7.2-1.1c-.2-.4-.7-.4-1.1-.2-.4.3-.5.7-.2 1.1zM477.1 181c-.3.3-.2.8.1 1.1.3.3.8.2 1.1-.1.3-.3.2-.8-.1-1.1-.4-.3-.9-.2-1.1.1zM464 177.5c-.3.3-.2.8.1 1.1.3.3.8.2 1.1-.1.3-.3.2-.8-.1-1.1-.3-.3-.8-.2-1.1.1zM498.6 187.3c-.3.3-.2.8.1 1.1.3.3.8.2 1.1-.1.3-.3.2-.8-.1-1.1-.3-.3-.8-.3-1.1.1zM253.9 135.5c.1-.4-.2-.8-.6-.9-.4-.1-.8.2-.9.6-.1.4.2.8.6.9.4.1.8-.2.9-.6zM685 88.9c.4-.1.6-.6.5-1s-.6-.6-1-.5-.6.6-.5 1c.1.4.6.7 1 .5zM719 108.9c.4 0 .8-.3.8-.8 0-.4-.3-.8-.8-.8-.4 0-.8.3-.8.8s.4.8.8.8zM702.9 105.5c.4 0 .8-.3.8-.8s-.3-.8-.8-.8c-.4 0-.8.3-.8.8 0 .4.4.8.8.8zM294.8 107.3c.4 0 .8-.3.8-.8 0-.4-.3-.8-.8-.8s-.8.3-.8.8c0 .4.3.8.8.8zM580.9 61.9c.4 0 .8-.3.8-.8 0-.4-.3-.8-.8-.8s-.8.3-.8.8c.1.5.4.8.8.8zM450.3 60.9c.4 0 .8-.3.8-.8 0-.4-.3-.8-.8-.8s-.8.3-.8.8c.1.4.4.8.8.8zM693.8 105.6c-.2-.4-.6-.6-1-.4-.4.2-.6.6-.4 1 .2.4.6.6 1 .4.3-.1.5-.6.4-1zM708.6 95.3c-.2-.4-.6-.6-1-.4s-.6.6-.4 1c.2.4.6.6 1 .4.3-.2.5-.6.4-1zM684.1 98.6c-.1-.4-.5-.7-.9-.6s-.7.5-.6.9c.1.4.5.7.9.6s.7-.5.6-.9zM892.4 155.3c.4 0 .8-.3.8-.8 0-.4-.3-.8-.8-.8-.4 0-.8.3-.8.8 0 .4.3.8.8.8zM862.8 107.7c.4 0 .8-.3.8-.8 0-.4-.3-.8-.8-.8-.4 0-.8.3-.8.8 0 .4.4.8.8.8zM854.9 95.7c.4 0 .8-.3.8-.8 0-.4-.3-.8-.8-.8-.4 0-.8.3-.8.8s.4.8.8.8zM842 120.5c.4.1.8-.2.9-.6.1-.4-.2-.8-.6-.9-.4-.1-.8.2-.9.6-.1.4.2.8.6.9zM293.6 141.7c.4 0 .8-.3.8-.8 0-.4-.3-.8-.8-.8-.4 0-.8.3-.8.8s.3.8.8.8zM852.9 115.7c.4 0 .8-.3.8-.8 0-.4-.3-.8-.8-.8s-.8.3-.8.8.3.8.8.8zM849.6 101.2c.4 0 .8-.3.8-.8s-.3-.8-.8-.8c-.4 0-.8.3-.8.8s.4.8.8.8zM297.3 160.6c.4 0 .8-.3.8-.8s-.3-.8-.8-.8c-.4 0-.8.3-.8.8s.4.8.8.8zM132.4 145c.4.1.8-.2.9-.6.1-.4-.2-.8-.6-.9-.4-.1-.8.2-.9.6-.1.4.2.8.6.9zM870.2 140.1c.4 0 .8-.3.8-.8s-.3-.8-.8-.8c-.4 0-.8.3-.8.8 0 .4.3.8.8.8zM155.3 159.4c.4 0 .8-.3.8-.8 0-.4-.3-.8-.8-.8-.4 0-.8.3-.8.8s.4.8.8.8zM131 171.3c.4 0 .8-.3.8-.8s-.3-.8-.8-.8c-.4 0-.8.3-.8.8s.3.8.8.8zM320.6 184c.4 0 .8-.3.8-.8s-.3-.8-.8-.8c-.4 0-.8.3-.8.8 0 .4.3.8.8.8zM128.4 126.1c.4 0 .8-.3.8-.8 0-.4-.3-.8-.8-.8s-.8.3-.8.8c.1.4.4.8.8.8zM549.5 75.4c.4 0 .8-.3.8-.8 0-.4-.3-.8-.8-.8-.4 0-.8.3-.8.8 0 .4.4.8.8.8zM531.7 80.8c.4 0 .8-.3.8-.8 0-.4-.3-.8-.8-.8-.4 0-.8.3-.8.8.1.5.4.8.8.8zM512.9 127.3c.4.1.8-.2.9-.6s-.2-.8-.6-.9-.8.2-.9.6.2.8.6.9zM765 153.5c.4-.1.6-.6.5-1s-.6-.6-1-.5-.6.6-.5 1c.2.4.6.6 1 .5zM853 138.5c.4-.1.6-.6.5-1s-.6-.6-1-.5-.6.6-.5 1c.1.3.5.6 1 .5zM938 191.8c.4-.1.6-.6.5-1s-.6-.6-1-.5-.6.6-.5 1c.1.4.6.7 1 .5zM409.3 78.8c.4-.1.6-.6.5-1s-.6-.6-1-.5-.6.6-.5 1 .6.7 1 .5zM414.6 65.9c.4-.1.6-.6.5-1s-.6-.6-1-.5-.6.6-.5 1c.1.4.6.6 1 .5zM420.7 80.2c.4-.1.6-.6.5-1s-.6-.6-1-.5-.6.6-.5 1c.1.3.6.6 1 .5zM787.7 150.5c-.2-.4-.6-.6-1-.4s-.6.6-.4 1c.2.4.6.6 1 .4.4-.2.6-.6.4-1zM412.9 125.7c-.2-.4-.6-.6-1-.4-.4.2-.6.6-.4 1s.6.6 1 .4c.4-.1.6-.6.4-1zM370.8 161.9c-.1-.4-.5-.7-.9-.6-.4.1-.7.5-.6.9s.5.7.9.6c.5-.1.7-.5.6-.9zM263 159.7c.4.1.8-.2.9-.6.1-.4-.2-.8-.6-.9-.4-.1-.8.2-.9.6-.1.4.2.8.6.9zM507.4 92.8c.4 0 .8-.3.8-.8 0-.4-.3-.8-.8-.8-.4 0-.8.3-.8.8 0 .4.3.7.8.8zM526.4 86.3c.4 0 .8-.3.8-.8 0-.4-.3-.8-.8-.8-.4 0-.8.3-.8.8.1.4.4.8.8.8zM514.6 73.8c.4 0 .8-.3.8-.8 0-.4-.3-.8-.8-.8-.4 0-.8.3-.8.8s.4.8.8.8zM498.4 68.9c.4 0 .8-.3.8-.8 0-.4-.3-.8-.8-.8-.4 0-.8.3-.8.8s.4.8.8.8zM506.6 107.2c.4 0 .8-.3.8-.8 0-.4-.3-.8-.8-.8s-.8.3-.8.8c0 .4.4.8.8.8zM461.9 80.8c.4 0 .8-.3.8-.8 0-.4-.3-.8-.8-.8-.4 0-.8.3-.8.8s.3.8.8.8zM468.8 105.6c.4.1.8-.2.9-.6.1-.4-.2-.8-.6-.9s-.8.2-.9.6c-.1.4.2.8.6.9zM484.4 92c.4 0 .8-.3.8-.8 0-.4-.3-.8-.8-.8-.4 0-.8.3-.8.8 0 .4.4.8.8.8zM456.6 86.3c.4 0 .8-.3.8-.8 0-.4-.3-.8-.8-.8-.4 0-.8.3-.8.8 0 .4.4.8.8.8zM491.7 120c.4 0 .8-.3.8-.8 0-.4-.3-.8-.8-.8-.4 0-.8.3-.8.8s.4.8.8.8zM473.8 91.2c.4 0 .8-.3.8-.8 0-.4-.3-.8-.8-.8-.4 0-.8.3-.8.8 0 .4.4.8.8.8zM646.1 209.6c0-.9-.7-1.6-1.6-1.6s-1.6.7-1.6 1.6.7 1.6 1.6 1.6 1.6-.7 1.6-1.6zM970.3 148.5c0-.9-.7-1.6-1.6-1.6s-1.6.7-1.6 1.6c0 .9.7 1.6 1.6 1.6s1.6-.7 1.6-1.6zM756.4 140.8c0-.9-.7-1.6-1.6-1.6s-1.6.7-1.6 1.6.7 1.6 1.6 1.6 1.6-.7 1.6-1.6z"/>
		<circle class="st0" cx="262.2" cy="129.8" r="1.6"/>
		<path class="st0" d="M235.4 86c0-.9-.7-1.6-1.6-1.6s-1.6.7-1.6 1.6.7 1.6 1.6 1.6 1.6-.8 1.6-1.6zM279.3 98.8c-.1.4.2.8.6.9s.8-.2.9-.6-.2-.8-.6-.9-.8.2-.9.6zM268.4 94.9c-.1.4.2.8.6.9s.8-.2.9-.6-.2-.8-.6-.9c-.4 0-.8.2-.9.6zM281.6 89.6c-.1.4.2.8.6.9s.8-.2.9-.6-.2-.8-.6-.9-.8.2-.9.6zM247.1 94.1c0-.9-.7-1.6-1.6-1.6-.9 0-1.6.7-1.6 1.6s.7 1.6 1.6 1.6c.9 0 1.6-.7 1.6-1.6z"/>
		<circle class="st0" cx="369.1" cy="206.7" r="2.9"/>
		<circle class="st0" cx="732.4" cy="127.9" r="2.9"/>
		<circle class="st0" cx="945.7" cy="157.9" r="2.9"/>
		<path class="st0" d="M775.1 130.1c.4 0 .8-.3.8-.8s-.3-.8-.8-.8c-.4 0-.8.3-.8.8 0 .4.3.7.8.8zM755.8 100.4c.4 0 .8-.3.8-.8 0-.4-.3-.8-.8-.8-.4 0-.8.3-.8.8.1.5.4.8.8.8zM747.9 88.5c.4 0 .8-.3.8-.8 0-.4-.3-.8-.8-.8-.4 0-.8.3-.8.8.1.4.4.8.8.8zM737 108.5c.4 0 .8-.3.8-.8 0-.4-.3-.8-.8-.8-.4 0-.8.3-.8.8 0 .4.4.8.8.8zM742.6 94c.4 0 .8-.3.8-.8 0-.4-.3-.8-.8-.8-.4 0-.8.3-.8.8.1.4.4.8.8.8zM766.5 114.8c0-.9-.7-1.6-1.6-1.6s-1.6.7-1.6 1.6.7 1.6 1.6 1.6 1.6-.7 1.6-1.6z"/>
		<circle class="st0" cx="493.2" cy="159.2" r="1.6"/>
		<circle class="st0" cx="1178.4" cy="87.6" r="1.6"/>
		<circle class="st0" cx="815.3" cy="162.6" r="1.6"/>
		<path class="st0" d="M283.9 160.4c.4-.1.6-.6.5-1s-.6-.6-1-.5-.6.6-.5 1 .5.7 1 .5zM274.1 157.9c.4-.1.6-.6.5-1s-.6-.6-1-.5-.6.6-.5 1c.2.4.6.6 1 .5zM282.1 145c.4.2.8.2 1.1-.2.2-.4.2-.8-.2-1.1s-.8-.2-1.1.2c-.3.4-.2.9.2 1.1zM884 118.8c-.2-.4-.6-.6-1-.4-.4.2-.6.6-.4 1 .2.4.6.6 1 .4.3-.1.5-.6.4-1zM296.9 118.8c-.1-.4-.5-.7-.9-.6-.4.1-.7.5-.6.9s.5.7.9.6c.4 0 .7-.4.6-.9zM299.4 154.5c-.1-.4-.5-.7-.9-.6-.4.1-.7.5-.6.9s.5.7.9.6c.4 0 .7-.4.6-.9zM991.9 195.2c-.1-.4-.5-.7-.9-.6-.4.1-.7.5-.6.9.1.4.5.7.9.6.4-.1.7-.5.6-.9zM998.1 187.8c-.1-.4-.5-.7-.9-.6-.4.1-.7.5-.6.9.1.4.5.7.9.6.5-.1.7-.5.6-.9z"/>
		<circle class="st0" cx="964.6" cy="182.3" r="1.6"/>
		<path class="st0" d="M945.7 186.7c.4 0 .8-.3.8-.8 0-.4-.3-.8-.8-.8-.4 0-.8.3-.8.8s.3.8.8.8zM870.2 124.6c.4 0 .8-.3.8-.8 0-.4-.3-.8-.8-.8-.4 0-.8.3-.8.8s.3.8.8.8zM943.3 205.2c.4 0 .8-.3.8-.8 0-.4-.3-.8-.8-.8s-.8.3-.8.8.4.8.8.8zM855.3 127.4c-.2-.4-.6-.6-1-.4-.4.2-.6.6-.4 1 .2.4.6.6 1 .4.4-.1.6-.6.4-1zM846.1 129.7c-.1-.4-.5-.7-.9-.6-.4.1-.7.5-.6.9.1.4.5.7.9.6.4-.1.7-.5.6-.9zM865.9 127.3c-.1-.4-.5-.7-.9-.6-.4.1-.7.5-.6.9.1.4.5.7.9.6.4-.1.7-.5.6-.9zM872.1 132.6c-.1-.4-.5-.7-.9-.6-.4.1-.7.5-.6.9.1.4.5.7.9.6.4 0 .7-.5.6-.9zM860.6 119.2c.4 0 .8-.3.8-.8 0-.4-.3-.8-.8-.8-.4 0-.8.3-.8.8s.4.8.8.8zM822.9 141.2c-.1-.4-.5-.7-.9-.6-.4.1-.7.5-.6.9.1.4.5.7.9.6.5-.1.7-.5.6-.9zM704.2 158.4c.4 0 .8-.3.8-.8 0-.4-.3-.8-.8-.8-.4 0-.8.3-.8.8s.4.8.8.8zM943.6 180.9c.4 0 .8-.3.8-.8 0-.4-.3-.8-.8-.8-.4 0-.8.3-.8.8s.3.8.8.8zM720.7 156.8c-.1-.4-.5-.7-.9-.6-.4.1-.7.5-.6.9.1.4.5.7.9.6.4-.1.7-.5.6-.9zM762.8 161.1c.4 0 .8-.3.8-.8s-.3-.8-.8-.8c-.4 0-.8.3-.8.8 0 .4.4.8.8.8zM761.3 172.5c.4 0 .8-.3.8-.8 0-.4-.3-.8-.8-.8-.4 0-.8.3-.8.8s.3.8.8.8zM753.4 160.6c.4 0 .8-.3.8-.8 0-.4-.3-.8-.8-.8-.4 0-.8.3-.8.8 0 .4.3.8.8.8zM315.3 164.7c.4 0 .8-.3.8-.8 0-.4-.3-.8-.8-.8s-.8.3-.8.8c0 .4.4.8.8.8zM1173.5 79.7c-.1-.4-.5-.7-.9-.6s-.7.5-.6.9.5.7.9.6c.5 0 .7-.5.6-.9zM783.5 168c-.1-.4-.5-.7-.9-.6-.4.1-.7.5-.6.9.1.4.5.7.9.6.4-.1.7-.5.6-.9zM496.8 135.7c.4 0 .8-.3.8-.8 0-.4-.3-.8-.8-.8-.4 0-.8.3-.8.8s.3.8.8.8zM501 147.9c.4 0 .8-.3.8-.8 0-.4-.3-.8-.8-.8-.4 0-.8.3-.8.8.1.5.4.8.8.8zM505.5 139.7c.5 0 .8-.3.8-.8 0-.4-.3-.8-.8-.8s-.8.3-.8.8c0 .4.4.8.8.8zM964.8 191c.4-.1.6-.6.5-1s-.6-.6-1-.5-.6.6-.5 1c.1.4.6.7 1 .5zM972.6 196.1c-.1-.4-.5-.7-.9-.6-.4.1-.7.5-.6.9.1.4.5.7.9.6s.7-.5.6-.9z"/>
	</g>
</svg>